<svg xmlns="http://www.w3.org/2000/svg" viewBox="0 0 64 64">
  <g transform="rotate(-3 32 32)">
    <path d="M8 21 Q7 9 20 8 Q32 6.5 45 8 Q57 9 56.5 21 Q58 33 56 44 Q56.5 56 44 56 Q32 57.5 20 56.5 Q7.5 56 8.5 44 Q6.5 32 8 21 Z" fill="#e2707e"/>
    <path d="M14 22 Q13.5 14 21 13.5 Q32 12.5 43 13.5 Q50.5 14 50 22 Q51 32 50 42 Q50.5 50 43 50.5 Q32 51.5 21 50.5 Q13.5 50 14 42 Q13 32 14 22 Z" fill="none" stroke="#f6efdf" stroke-width="3.4" stroke-dasharray="6.2 5" stroke-linecap="round"/>
  </g>
</svg>
